<svg id="Layer_1" data-name="Layer 1" xmlns="http://www.w3.org/2000/svg" viewBox="0 0 720 720"><defs><style>.cls-1{fill:none;}.cls-2{fill:#fff;}</style></defs><rect class="cls-1" width="720" height="720"/><path class="cls-2" d="M88.21,497.31A13.63,13.63,0,0,1,87,503.13a12.88,12.88,0,0,1-3.5,4.5A16.19,16.19,0,0,1,78,510.56a23.51,23.51,0,0,1-7.27,1H53.78V525a2.49,2.49,0,0,0,.44,1.76,3.7,3.7,0,0,0,1.7.76v1.57H41.62v-1.57a4.8,4.8,0,0,0,1.61-.63c.36-.25.53-.9.53-1.95V487.61a3.16,3.16,0,0,0-.34-1.7,3.05,3.05,0,0,0-1.8-.81v-1.58H69.51a29.34,29.34,0,0,1,7.94,1,17.45,17.45,0,0,1,5.85,2.77A12,12,0,0,1,87,491.61,12.69,12.69,0,0,1,88.21,497.31Zm-9.57.06a5.08,5.08,0,0,0-2.7-4.66q-2.72-1.57-9.13-1.57h-13v12.72H67.19c3.94,0,6.84-.57,8.68-1.7A5.33,5.33,0,0,0,78.64,497.37Z"/><path class="cls-2" d="M143.11,529.1H126.37v-1.57a3.29,3.29,0,0,0,1.13-.44,1.09,1.09,0,0,0,.5-1,2.23,2.23,0,0,0-.31-1.07,9.78,9.78,0,0,0-.69-1.07l-9.32-12.53H105.84V525a2.45,2.45,0,0,0,.47,1.73,3.82,3.82,0,0,0,1.74.79v1.57H93.69v-1.57a3.48,3.48,0,0,0,1.7-.79,2.57,2.57,0,0,0,.44-1.73v-37.4a2.61,2.61,0,0,0-.44-1.73,3.58,3.58,0,0,0-1.7-.78v-1.58h27.89a38.93,38.93,0,0,1,6.55.57,20.42,20.42,0,0,1,6.08,2,12.53,12.53,0,0,1,4.5,4,11.42,11.42,0,0,1,1.76,6.55,14.35,14.35,0,0,1-.91,5.26,12.32,12.32,0,0,1-2.55,4,14.32,14.32,0,0,1-3.94,2.83,23.43,23.43,0,0,1-5,1.76l9.38,12.66A14.39,14.39,0,0,0,140,525.9a9.45,9.45,0,0,0,3.14,1.63ZM130.9,497.37a4.79,4.79,0,0,0-1.23-3.55,7.29,7.29,0,0,0-3-1.8,14.47,14.47,0,0,0-3.9-.63q-2.09-.06-3.72-.06H105.84v12.53h13.48c1.13,0,2.38,0,3.74-.13a13.28,13.28,0,0,0,3.78-.75,7,7,0,0,0,2.9-2A5.35,5.35,0,0,0,130.9,497.37Z"/><path class="cls-2" d="M162.69,529.1H148.4v-1.57a3.65,3.65,0,0,0,1.67-.79,2.41,2.41,0,0,0,.47-1.73v-37.4a2.55,2.55,0,0,0-.44-1.73,3.58,3.58,0,0,0-1.7-.78v-1.58h14.29v1.58a3.88,3.88,0,0,0-1.73.78,2.49,2.49,0,0,0-.47,1.73V525a2.45,2.45,0,0,0,.47,1.73,3.77,3.77,0,0,0,1.73.79Z"/><path class="cls-2" d="M220.05,485.1a6,6,0,0,0-3.9,3.59l-15.74,35.25a3.2,3.2,0,0,0-.1,2,2.23,2.23,0,0,0,1.92,1.54v1.57H185.8v-1.57a4.74,4.74,0,0,0,1.48-.79,1.64,1.64,0,0,0,.57-.88,1.61,1.61,0,0,0-.1-.94c-.12-.32-.25-.64-.37-1l-15.68-34.5a12.46,12.46,0,0,0-1.64-2.68,5.19,5.19,0,0,0-2.71-1.66v-1.58h16v1.58a6.45,6.45,0,0,0-1,.31,1.87,1.87,0,0,0-.76.54,1.5,1.5,0,0,0-.31.91,3,3,0,0,0,.41,1.45L194.36,516l12.28-28.27a5.06,5.06,0,0,0,.19-.79,1.29,1.29,0,0,0-.13-.79,1.45,1.45,0,0,0-.66-.63,4.27,4.27,0,0,0-1.35-.37v-1.58h15.36Z"/><path class="cls-2" d="M229.68,518.91l-1.82,5c-1,2-.46,3.21,1.51,3.59v1.57H213.75v-1.57a4.58,4.58,0,0,0,2.71-1.73,16.83,16.83,0,0,0,1.64-2.74l14.35-34.5a3.68,3.68,0,0,0,.35-1,2,2,0,0,0-.06-1,1.82,1.82,0,0,0-.66-.85,4,4,0,0,0-1.45-.63v-1.58H253v1.58a3.8,3.8,0,0,0-1.57.66,1.74,1.74,0,0,0-.64.88,2.15,2.15,0,0,0,0,1,5.22,5.22,0,0,0,.38,1l14.29,34.37a17.58,17.58,0,0,0,1.64,2.74,4.58,4.58,0,0,0,2.71,1.73v1.57H254.17v-1.57a2.86,2.86,0,0,0,2-1.16,2.64,2.64,0,0,0-.25-2.43l-2-5Zm13.54-27.58h-2.9l-8,20.65h18.95Z"/><path class="cls-2" d="M311.78,493.91h-1.57a3.37,3.37,0,0,0-.76-1.7,2.42,2.42,0,0,0-1.76-.5h-14V525a2.69,2.69,0,0,0,.44,1.79,3.53,3.53,0,0,0,1.7.79v1.57H281.63v-1.57a3,3,0,0,0,1.73-.82,2.72,2.72,0,0,0,.47-1.76V491.71h-14a2.52,2.52,0,0,0-1.73.44,3.48,3.48,0,0,0-.79,1.7H265.7V482h1.57c.21.8.47,1.25.79,1.36a6.59,6.59,0,0,0,1.73.15h38.94a1.78,1.78,0,0,0,.69-.12,1,1,0,0,0,.47-.44,2.89,2.89,0,0,0,.32-.95h1.57Z"/><path class="cls-2" d="M360.76,530.62h-1.51a2.08,2.08,0,0,0-.59-1.17,3.41,3.41,0,0,0-1.92-.35H318.08v-1.57a3.76,3.76,0,0,0,1.67-.79,2.56,2.56,0,0,0,.47-1.79V487.61a2.61,2.61,0,0,0-.44-1.73,3.63,3.63,0,0,0-1.7-.78v-1.58h38.09a5.86,5.86,0,0,0,1.83-.19q.5-.18.69-1.32h1.57v11.77h-1.57a4.4,4.4,0,0,0-.66-1.6,1.77,1.77,0,0,0-1.48-.54H330.17v10.77h15.61a2.7,2.7,0,0,0,1.76-.41,3.8,3.8,0,0,0,.82-1.67h1.51v11.59h-1.51a3.3,3.3,0,0,0-.82-1.7,2.65,2.65,0,0,0-1.76-.44H330.17v11.14h26.5a2.89,2.89,0,0,0,1.8-.41,3.35,3.35,0,0,0,.78-1.67h1.51Z"/><path class="cls-2" d="M429.77,493.91h-1.58a3.37,3.37,0,0,0-.75-1.7,2.44,2.44,0,0,0-1.76-.5h-14V525a2.63,2.63,0,0,0,.44,1.79,3.48,3.48,0,0,0,1.7.79v1.57H399.61v-1.57a3,3,0,0,0,1.73-.82,2.67,2.67,0,0,0,.47-1.76V491.71h-14a2.54,2.54,0,0,0-1.73.44,3.49,3.49,0,0,0-.78,1.7h-1.58V482h1.58c.2.8.47,1.25.78,1.36a6.65,6.65,0,0,0,1.73.15h38.94a1.79,1.79,0,0,0,.7-.12,1.1,1.1,0,0,0,.47-.44,2.92,2.92,0,0,0,.31-.95h1.58Z"/><path class="cls-2" d="M485.49,529.1H468.74v-1.57a3.21,3.21,0,0,0,1.13-.44,1.1,1.1,0,0,0,.51-1,2.25,2.25,0,0,0-.32-1.07,9.78,9.78,0,0,0-.69-1.07l-9.32-12.53H448.21V525a2.4,2.4,0,0,0,.48,1.73,3.72,3.72,0,0,0,1.73.79v1.57H436.06v-1.57a3.48,3.48,0,0,0,1.7-.79,2.52,2.52,0,0,0,.44-1.73v-37.4a2.55,2.55,0,0,0-.44-1.73,3.58,3.58,0,0,0-1.7-.78v-1.58H464a38.75,38.75,0,0,1,6.55.57,20.33,20.33,0,0,1,6.08,2,12.53,12.53,0,0,1,4.5,4,11.42,11.42,0,0,1,1.76,6.55,14.15,14.15,0,0,1-.91,5.26,12.32,12.32,0,0,1-2.55,4,14,14,0,0,1-3.94,2.83,23.43,23.43,0,0,1-5,1.76l9.38,12.66a14.73,14.73,0,0,0,2.52,2.71,9.41,9.41,0,0,0,3.15,1.63Zm-12.22-31.73a4.79,4.79,0,0,0-1.23-3.55A7.22,7.22,0,0,0,469,492a14.47,14.47,0,0,0-3.9-.63q-2.08-.06-3.72-.06H448.21v12.53h13.48c1.13,0,2.38,0,3.74-.13a13.21,13.21,0,0,0,3.78-.75,7,7,0,0,0,2.9-2A5.35,5.35,0,0,0,473.27,497.37Z"/><path class="cls-2" d="M503.3,518.91l-1.82,5c-1,2-.46,3.21,1.51,3.59v1.57H487.38v-1.57a4.58,4.58,0,0,0,2.7-1.73,16.83,16.83,0,0,0,1.64-2.74l14.36-34.5a4,4,0,0,0,.34-1,2,2,0,0,0-.06-1,1.82,1.82,0,0,0-.66-.85,4,4,0,0,0-1.45-.63v-1.58H526.6v1.58a3.87,3.87,0,0,0-1.57.66,1.66,1.66,0,0,0-.63.88,1.92,1.92,0,0,0,0,1,5.17,5.17,0,0,0,.37,1l14.3,34.37a16.78,16.78,0,0,0,1.63,2.74,4.58,4.58,0,0,0,2.71,1.73v1.57H527.8v-1.57a2.86,2.86,0,0,0,2-1.16,2.64,2.64,0,0,0-.25-2.43l-2-5Zm13.54-27.58h-2.9L506,512H524.9Z"/><path class="cls-2" d="M589.81,485.1a6,6,0,0,0-3.9,3.59l-15.74,35.25a3.2,3.2,0,0,0-.1,2,2.23,2.23,0,0,0,1.92,1.54v1.57H555.56v-1.57a4.74,4.74,0,0,0,1.48-.79,1.58,1.58,0,0,0,.57-.88,1.61,1.61,0,0,0-.1-.94c-.12-.32-.25-.64-.37-1l-15.68-34.5a12.46,12.46,0,0,0-1.64-2.68,5.19,5.19,0,0,0-2.71-1.66v-1.58h16v1.58a6.22,6.22,0,0,0-1,.31,1.94,1.94,0,0,0-.76.54,1.5,1.5,0,0,0-.31.91,3,3,0,0,0,.41,1.45L564.12,516l12.28-28.27a5.06,5.06,0,0,0,.19-.79,1.29,1.29,0,0,0-.13-.79,1.45,1.45,0,0,0-.66-.63,4.27,4.27,0,0,0-1.35-.37v-1.58h15.36Z"/><path class="cls-2" d="M636.9,530.62h-1.51a2.08,2.08,0,0,0-.59-1.17,3.41,3.41,0,0,0-1.92-.35H594.22v-1.57a3.76,3.76,0,0,0,1.67-.79,2.56,2.56,0,0,0,.47-1.79V487.61a2.61,2.61,0,0,0-.44-1.73,3.63,3.63,0,0,0-1.7-.78v-1.58h38.09a5.86,5.86,0,0,0,1.83-.19q.5-.18.69-1.32h1.57v11.77h-1.57a4.4,4.4,0,0,0-.66-1.6,1.77,1.77,0,0,0-1.48-.54H606.31v10.77h15.61a2.7,2.7,0,0,0,1.76-.41,3.8,3.8,0,0,0,.82-1.67H626v11.59H624.5a3.3,3.3,0,0,0-.82-1.7,2.65,2.65,0,0,0-1.76-.44H606.31v11.14h26.5a2.89,2.89,0,0,0,1.8-.41,3.35,3.35,0,0,0,.78-1.67h1.51Z"/><path class="cls-2" d="M681.1,530.62h-1.57a1.89,1.89,0,0,0-.76-1.23,3.82,3.82,0,0,0-1.76-.29H643.52v-1.57a3.66,3.66,0,0,0,1.66-.79,2.4,2.4,0,0,0,.48-1.73V487.68a2.37,2.37,0,0,0-.54-1.77,4,4,0,0,0-1.6-.81v-1.58h14.35v1.58a3.18,3.18,0,0,0-1.64.78,3.09,3.09,0,0,0-.37,1.8V521H677a2.42,2.42,0,0,0,1.76-.5,3.37,3.37,0,0,0,.76-1.7h1.57Z"/><path class="cls-2" d="M174.26,560.11a6.5,6.5,0,0,1-.63,2.92,8,8,0,0,1-1.68,2.25,10.08,10.08,0,0,1-2.42,1.66,15,15,0,0,1-2.84,1.09,20.86,20.86,0,0,1-3,.61,21.78,21.78,0,0,1-2.79.2,33,33,0,0,1-5.39-.43,19.33,19.33,0,0,1-5.13-1.61,2.33,2.33,0,0,0-1-.25,1.13,1.13,0,0,0-.84.5l-1-.43,2.82-6.4,1,.35a1.47,1.47,0,0,0,0,.72,1.1,1.1,0,0,0,.43.64,7.14,7.14,0,0,0,2,1,17,17,0,0,0,2.48.7c.87.18,1.74.32,2.6.41a19.82,19.82,0,0,0,2.29.14c.5,0,1.14,0,1.93-.12a11,11,0,0,0,2.29-.48,5.58,5.58,0,0,0,1.91-1,2.2,2.2,0,0,0,.81-1.76c0-.83-.54-1.51-1.63-2a13.49,13.49,0,0,0-5-1c-.89,0-1.81-.06-2.78-.11a28.76,28.76,0,0,1-2.9-.29,16.19,16.19,0,0,1-2.79-.66,7.94,7.94,0,0,1-2.41-1.27,5.31,5.31,0,0,1-1.74-2.2,7.81,7.81,0,0,1,.32-6.46,8.08,8.08,0,0,1,2.49-2.73,12.41,12.41,0,0,1,3.85-1.76,18.78,18.78,0,0,1,5-.62,27.86,27.86,0,0,1,4.76.43,23.13,23.13,0,0,1,5.19,1.57,5.17,5.17,0,0,0,1.46.52,1.6,1.6,0,0,0,1.11-.41l.83.43-3.22,6.19-1-.47a1.86,1.86,0,0,0-.54-1.32,6.4,6.4,0,0,0-1.82-1.2,15.07,15.07,0,0,0-2.26-.79,17.46,17.46,0,0,0-2.36-.43,21.66,21.66,0,0,0-2.18-.12,17.15,17.15,0,0,0-1.81.12,9.11,9.11,0,0,0-2.09.5,5.34,5.34,0,0,0-1.72,1,2.15,2.15,0,0,0-.71,1.69,2.26,2.26,0,0,0,.53,1.57,3.68,3.68,0,0,0,1.33,1,6.09,6.09,0,0,0,1.66.46c.58.09,1.11.14,1.59.17,1.74.11,3.39.22,4.94.3a18.8,18.8,0,0,1,4.54.8,12.41,12.41,0,0,1,2.12,1,8,8,0,0,1,1.75,1.39,6.59,6.59,0,0,1,1.2,1.83A5.38,5.38,0,0,1,174.26,560.11Z"/><path class="cls-2" d="M230.47,569.09h-.86a1.15,1.15,0,0,0-.34-.66,1.91,1.91,0,0,0-1.09-.2h-22v-.89a2.15,2.15,0,0,0,.95-.45,1.45,1.45,0,0,0,.27-1V544.65a1.48,1.48,0,0,0-.25-1,2,2,0,0,0-1-.45v-.89h21.65a3.47,3.47,0,0,0,1-.11q.28-.11.39-.75h.89v6.69h-.89a2.49,2.49,0,0,0-.38-.92,1,1,0,0,0-.84-.3h-15v6.12H222a1.6,1.6,0,0,0,1-.23,2.3,2.3,0,0,0,.46-1h.86v6.58h-.86a1.9,1.9,0,0,0-.46-1,1.56,1.56,0,0,0-1-.25h-8.87v6.33h15.06a1.62,1.62,0,0,0,1-.23,1.9,1.9,0,0,0,.45-1h.86Z"/><path class="cls-2" d="M290.94,568.23h-9.51v-.89a2,2,0,0,0,.64-.25.63.63,0,0,0,.29-.58,1.21,1.21,0,0,0-.18-.6,4.28,4.28,0,0,0-.4-.61l-5.29-7.12h-6.73v7.73a1.38,1.38,0,0,0,.27,1,2.13,2.13,0,0,0,1,.45v.89h-8.16v-.89a2,2,0,0,0,1-.45,1.44,1.44,0,0,0,.25-1V544.65a1.43,1.43,0,0,0-.25-1,2,2,0,0,0-1-.45v-.89h15.86a21.74,21.74,0,0,1,3.72.32,11.3,11.3,0,0,1,3.45,1.14,7,7,0,0,1,2.56,2.29,6.45,6.45,0,0,1,1,3.72,8,8,0,0,1-.52,3,6.79,6.79,0,0,1-1.45,2.27,7.82,7.82,0,0,1-2.23,1.61,13.14,13.14,0,0,1-2.85,1l5.33,7.19a8.56,8.56,0,0,0,1.43,1.54,5.63,5.63,0,0,0,1.79.93Zm-6.94-18a2.7,2.7,0,0,0-.7-2,4.12,4.12,0,0,0-1.73-1,8.32,8.32,0,0,0-2.22-.35c-.79,0-1.49,0-2.11,0h-7.48v7.12h7.66c.64,0,1.35,0,2.13-.07a7.6,7.6,0,0,0,2.14-.43,4,4,0,0,0,1.65-1.11A3,3,0,0,0,284,550.2Z"/><path class="cls-2" d="M349.66,543.22a3.39,3.39,0,0,0-2.21,2l-8.95,20a1.81,1.81,0,0,0-.05,1.16c.1.44.47.73,1.09.88v.89H330.2v-.89a2.9,2.9,0,0,0,.84-.45.85.85,0,0,0,.32-.5.92.92,0,0,0-.05-.54c-.07-.18-.15-.36-.22-.55l-8.91-19.61a6.94,6.94,0,0,0-.93-1.52,3,3,0,0,0-1.54-.95v-.89h9.09v.89a5.05,5.05,0,0,0-.55.18,1,1,0,0,0-.43.3.86.86,0,0,0-.18.52,1.68,1.68,0,0,0,.23.82l7.19,15.71,7-16.06a2.46,2.46,0,0,0,.11-.45.78.78,0,0,0-.07-.45.89.89,0,0,0-.38-.36,2.6,2.6,0,0,0-.77-.21v-.89h8.73Z"/><path class="cls-2" d="M389.06,568.23h-8.12v-.89a2.15,2.15,0,0,0,.95-.45,1.39,1.39,0,0,0,.26-1V544.65a1.43,1.43,0,0,0-.25-1,2,2,0,0,0-1-.45v-.89h8.12v.89a2.13,2.13,0,0,0-1,.45,1.37,1.37,0,0,0-.27,1v21.26a1.38,1.38,0,0,0,.27,1,2.13,2.13,0,0,0,1,.45Z"/><path class="cls-2" d="M451.72,565l-.72.47a3.22,3.22,0,0,0-.55-.36.44.44,0,0,0-.49,0,26.24,26.24,0,0,1-6.1,2.83,23,23,0,0,1-7,1.07,17.28,17.28,0,0,1-6.05-1,14.9,14.9,0,0,1-4.83-2.86,13.3,13.3,0,0,1-3.2-4.33,12.68,12.68,0,0,1-1.16-5.44,13.16,13.16,0,0,1,1.14-5.49,12.92,12.92,0,0,1,3.22-4.35,15.16,15.16,0,0,1,5-2.86,19.26,19.26,0,0,1,6.52-1,21.19,21.19,0,0,1,3.66.32q1.82.33,3.3.75c1,.29,1.83.56,2.54.83s1.2.44,1.48.53a2.35,2.35,0,0,0,.79.09,1.07,1.07,0,0,0,.75-.3l.75.5-3.83,6.15-.78-.46.17-.47c0-.35-.26-.73-.78-1.12a8.87,8.87,0,0,0-2.08-1.11,15.54,15.54,0,0,0-2.9-.84,15.92,15.92,0,0,0-3.22-.33,11.72,11.72,0,0,0-4.06.68,9.8,9.8,0,0,0-3.15,1.86,8.41,8.41,0,0,0-2.77,6.37,9.61,9.61,0,0,0,.73,3.78,8.88,8.88,0,0,0,2.06,3,9,9,0,0,0,3.2,2,11.72,11.72,0,0,0,4.14.7,13,13,0,0,0,3.14-.39,18.6,18.6,0,0,0,2.9-1,13.23,13.23,0,0,0,2.27-1.22,6.66,6.66,0,0,0,1.35-1.11.85.85,0,0,0,.16-.64,2.55,2.55,0,0,0-.2-.68l.75-.47Z"/><path class="cls-2" d="M507.82,569.09H507a1.28,1.28,0,0,0-.34-.66,2,2,0,0,0-1.1-.2h-22v-.89a2.09,2.09,0,0,0,.95-.45,1.45,1.45,0,0,0,.27-1V544.65a1.43,1.43,0,0,0-.25-1,2,2,0,0,0-1-.45v-.89h21.65a3.42,3.42,0,0,0,1-.11q.28-.11.39-.75h.9v6.69h-.9a2.5,2.5,0,0,0-.37-.92,1,1,0,0,0-.84-.3h-15v6.12h8.88a1.57,1.57,0,0,0,1-.23,2.28,2.28,0,0,0,.47-1h.85v6.58h-.85a1.89,1.89,0,0,0-.47-1,1.51,1.51,0,0,0-1-.25h-8.88v6.33H505.5a1.66,1.66,0,0,0,1-.23,1.9,1.9,0,0,0,.45-1h.85Z"/><path class="cls-2" d="M566.33,560.11a6.5,6.5,0,0,1-.63,2.92,7.79,7.79,0,0,1-1.68,2.25,10,10,0,0,1-2.41,1.66,15.1,15.1,0,0,1-2.85,1.09,20.59,20.59,0,0,1-3,.61,21.78,21.78,0,0,1-2.79.2,32.92,32.92,0,0,1-5.38-.43,19.28,19.28,0,0,1-5.14-1.61,2.29,2.29,0,0,0-1-.25,1.09,1.09,0,0,0-.84.5l-1-.43,2.83-6.4,1,.35a1.47,1.47,0,0,0,0,.72,1.1,1.1,0,0,0,.43.64,7.29,7.29,0,0,0,2,1,17.5,17.5,0,0,0,2.49.7c.87.18,1.73.32,2.59.41a19.82,19.82,0,0,0,2.29.14c.5,0,1.15,0,1.93-.12a11,11,0,0,0,2.29-.48,5.73,5.73,0,0,0,1.92-1,2.19,2.19,0,0,0,.8-1.76c0-.83-.54-1.51-1.62-2a13.55,13.55,0,0,0-5-1c-.88,0-1.81-.06-2.77-.11a28.19,28.19,0,0,1-2.9-.29,15.77,15.77,0,0,1-2.79-.66,8,8,0,0,1-2.42-1.27,5.28,5.28,0,0,1-1.73-2.2,7.37,7.37,0,0,1-.56-2.91,7.27,7.27,0,0,1,.88-3.55,8,8,0,0,1,2.48-2.73,12.52,12.52,0,0,1,3.85-1.76,18.83,18.83,0,0,1,5-.62,27.77,27.77,0,0,1,4.76.43,23.13,23.13,0,0,1,5.19,1.57,5.21,5.21,0,0,0,1.47.52,1.63,1.63,0,0,0,1.11-.41l.82.43-3.22,6.19-1-.47a1.85,1.85,0,0,0-.53-1.32,6.31,6.31,0,0,0-1.83-1.2,14.57,14.57,0,0,0-2.25-.79,18,18,0,0,0-2.36-.43,21.85,21.85,0,0,0-2.19-.12,17,17,0,0,0-1.8.12,9.19,9.19,0,0,0-2.1.5,5.18,5.18,0,0,0-1.71,1,2.16,2.16,0,0,0-.72,1.69,2.27,2.27,0,0,0,.54,1.57,3.64,3.64,0,0,0,1.32,1,6.29,6.29,0,0,0,1.66.46c.59.09,1.12.14,1.6.17,1.74.11,3.38.22,4.93.3a18.88,18.88,0,0,1,4.55.8,12.31,12.31,0,0,1,2.11,1,7.77,7.77,0,0,1,1.75,1.39,6.59,6.59,0,0,1,1.2,1.83A5.38,5.38,0,0,1,566.33,560.11Z"/><rect class="cls-2" x="41.59" y="552.58" width="95.05" height="5.28"/><rect class="cls-2" x="585.5" y="552.58" width="95.05" height="5.28"/><path class="cls-2" d="M484,226.48l1,1,.13,2.1h-18.8l18.39-18.4-2-2-20.44,20.44H403.45v-58l20.87-20.86-2.05-2-18.82,18.81v-18.3l3.55.23,1,1,1.08-.18V140.5l-41.89-14.09c0-.82.05-1.65.07-2.42.38-15.13-6.88-23.79-7.77-23.86-1.41-.13-7.56,6.56-7.78,23.86,0,.87,0,1.79,0,2.74L310.92,140.5v9.76l1.08.18,1-1,2.1-.14v16.77l-14.72-14.72-2,2,16.76,16.77v59.41H257.73L240,211.79l-2,2.05,15.74,15.74H234.83l.13-2.1,1-1-.18-1.08H226l-14.08,41.88-2.43-.07c-15.13-.37-23.79,6.89-23.86,7.78-.13,1.4,6.56,7.56,23.86,7.78h2.74L226,323.56h9.76l.18-1.09-1-1-.22-3.55H253L236.88,334.1l2,2,18.21-18.21h58v58.82l-17.78,17.78,2,2,15.74-15.74v18.81l-2.1-.13-1-1-1.08.18v9.76l41.88,14.08c0,.83-.05,1.65-.06,2.43-.38,15.12,6.88,23.79,7.77,23.86,1.4.12,7.56-6.57,7.78-23.86,0-.88,0-1.8,0-2.74l40.78-13.77V398.7l-1.09-.18-1,1-3.55.23V379.39l19.84,19.84,2-2-21.88-21.88V317.93h59.42l20.86,20.86,2-2L467,317.93h18.31l-.23,3.55-1,1,.18,1.09H494l14.08-41.89,2.43.07c15.12.38,23.78-6.89,23.86-7.78.13-1.4-6.57-7.55-23.86-7.77l-2.74,0L494,225.4h-9.76Zm1.31,6,2.19,34.24c-13.8.65-28.78,1.85-39.3,3.34-1.58-2.25-6.76-9.4-9.4-10.15a11.09,11.09,0,0,0-2.44-.36l27.07-27.07Zm-48.2,43.15-4.83,7.68-9.84-9.84,9.8-9.81,5.32,8.47c-2,.6-3.1,1.22-3.1,1.84S435.47,275.1,437.15,275.62Zm22.23-43.15-27.17,27.17c-1.33.11-2.29.26-2.29.26l.78,1.24-10.27,10.27-17-17v-22ZM376.8,315.05H343.2L318,289.84V257.07l24.61-24.6h34.8l23.17,23.16v35.65Zm23.77-19.69v19.69H380.89Zm-26.66,22.57L360,331.85l-13.92-13.92Zm-34.8-2.88H318V293.92Zm-24-28.1-13.49-13.49L315.1,260ZM318,253V232.47h20.52Zm27.49-23.41L360,215.06l14.51,14.52Zm36,2.89h19.08v19.08Zm22,26,14.94,14.94-14.94,14.93Zm-2.88-28.94h-22L362,213l9.29-9.29,1.31.82s.16-1,.27-2.4l27.66-27.66Zm-34.21-82.74,34.21,2.2v21.37L373,198a11.38,11.38,0,0,0-.36-2.34c-.68-2.42-6.75-7-9.5-8.95C364.54,176.14,365.63,160.87,366.36,146.84ZM359.49,200c.58,0,1.13-1,1.65-2.64l7.68,4.82L360,211l-9.57-9.57,7.22-4.54C358.24,198.84,358.86,200,359.49,200ZM318,149.13l34.24-2.2c.66,13.81,1.86,28.79,3.35,39.3-2.26,1.58-9.41,6.77-10.16,9.41-.06.19-.1.4-.15.61L318,169Zm0,23.92,27.05,27a40.11,40.11,0,0,0,.38,4.45l2.5-1.57,10,10L341.4,229.58H318Zm-2.89,59.42v23.41l-15.54,15.53L290,261.89l0-.06H290l-29.35-29.35Zm-32.71,44.36c2-.6,3.1-1.21,3.1-1.84s-1-1.13-2.64-1.66l5.61-8.93,9.06,9.06-10.59,10.59Zm-25.86-44.36,29,29a15.71,15.71,0,0,0-4.35.38c-2.42.69-7,6.76-8.94,9.5-10.56-1.39-25.82-2.49-39.86-3.21l2.29-35.65Zm-22,82.58-2.1-32.81c13.81-.65,28.79-1.85,39.3-3.34,1.58,2.25,6.77,9.41,9.41,10.16l.62.14-25.85,25.85Zm25.47,0,25.61-25.61a42.79,42.79,0,0,0,4.44-.38l-1.56-2.5,11.05-11.06L315.1,291v24Zm58,2.88h24l16,16-10.55,10.55-.06,0v.11L318,373.86Zm35.65,84.18L318,399.83V377.94l29-29a15.79,15.79,0,0,0,.38,4.36c.69,2.41,6.76,7,9.5,8.94C355.46,372.81,354.37,388.08,353.64,402.11ZM360.51,349c-.58,0-1.13,1-1.65,2.64L349.92,346,360,335.93l10.82,10.83-8.47,5.32C361.76,350.12,361.14,349,360.51,349Zm40.06,50.94L367.76,402c-.65-13.8-1.85-28.78-3.34-39.3,2.26-1.58,9.41-6.76,10.16-9.4a11.72,11.72,0,0,0,.36-2.45l25.63,25.63Zm0-27.5-25.73-25.73c-.12-1.34-.26-2.29-.26-2.29l-1.25.78L362,333.89l16-16h22.57Zm2.88-57.37V292.48l17-17,10.32,10.31-.83,1.31s1,.16,2.41.27L460,315.05Zm60.61,0-27.57-27.58a10.86,10.86,0,0,0,2.35-.35c2.42-.69,7-6.75,8.94-9.5,10.55,1.4,25.82,2.49,39.86,3.22l-2.2,34.21Z"/><path class="cls-2" d="M360,92.86A181.62,181.62,0,1,0,541.62,274.48,181.62,181.62,0,0,0,360,92.86Zm126.38,308a178.74,178.74,0,1,1,52.35-126.38A178.14,178.14,0,0,1,486.38,400.86Z"/><path class="cls-2" d="M460.77,180l-4,11.51,3.74-3.74-6.15,9.89,4.81-3.21-5.35,9.09,5.88-3.74-4.27,9.08,4.54-3.47L457,212.59C473.87,195.74,460.77,180,460.77,180Z"/><path class="cls-2" d="M461.3,180l10,6.9-2.63-4.6,7.93,8.55-1.83-5.49,7.35,7.56-2.06-6.67,7.65,6.53-2.16-5.3,6.19,4.74C480,171.53,461.3,180,461.3,180Z"/><path class="cls-2" d="M453.76,164.32l-5.49-1.82,8.55,7.92-4.6-2.63,6.9,10s8.47-18.68-12.22-30.49l4.74,6.19-5.3-2.15,6.53,7.64L446.2,157Z"/><path class="cls-2" d="M460.27,178.86l11.38-4.32-5.27-.46,11.53-1.65-5.55-1.63,10.4-1.74-6.65-2.1,9.72-2.57-5.59-1.25,7.43-2.39C463.93,158.68,460.27,178.86,460.27,178.86Z"/><path class="cls-2" d="M430,183.71l9.1-4.28-3.75,5.89,9.09-5.36-3.21,4.82,9.9-6.15-3.74,3.75,11.5-4s-15.79-13.1-32.63,3.75l7.22-3Z"/><path class="cls-2" d="M457.42,179.83s-32,30.75-45.2,38.42c-1.22.37-4.26,1.09-5.94-.18.94,1,2.08,2.17,3.52,3.45,2.27,2.26,6.36,6.29,7.77,7.52-1.64-1.64-.53-4,.33-5.39,9.17-9.15,37.48-37.49,41.39-42.75C460,180,459.83,178.76,457.42,179.83Z"/><path class="cls-2" d="M455.88,374.48l-11.56-3.85,3.79,3.69-10-6,3.28,4.78-9.17-5.23,3.83,5.83-9.15-4.14,3.54,4.49-7.26-2.84C440.28,387.8,455.88,374.48,455.88,374.48Z"/><path class="cls-2" d="M449.07,385.14l4.57-2.68-8.43,8,5.46-1.9-7.46,7.47,6.64-2.15-6.42,7.73,5.27-2.23-4.65,6.25C464.58,393.57,455.84,375,455.84,375Z"/><path class="cls-2" d="M484.26,359.66l-7.55,6.63,2-6.69-7.25,7.66,1.75-5.52-7.8,8.65,2.56-4.63-9.94,7s18.79,8.22,30.31-12.64L482.17,365Z"/><path class="cls-2" d="M457,374l4.48,11.32.38-5.28,1.82,11.51L465.2,386l1.89,10.37,2-6.68,2.71,9.68,1.17-5.6,2.49,7.39C477.2,377.34,457,374,457,374Z"/><path class="cls-2" d="M455.65,358.17,450.79,355l6.28,9.8-3.79-3.69,4.17,11.44s12.89-15.95-4.2-32.56l3.05,7.17-4.6-3.41,4.41,9-5.94-3.66Z"/><path class="cls-2" d="M413.61,324.09c-2.22,2.31-6.2,6.45-7.41,7.89,1.63-1.67,4-.6,5.4.25,9.28,9,38,36.95,43.32,40.79.94.65,2.15.51,1-1.89,0,0-31.19-31.58-39-44.66-.39-1.22-1.15-4.24.09-6C416.08,321.48,414.87,322.64,413.61,324.09Z"/><path class="cls-2" d="M258.65,194.41l4.81,3.21-6.14-9.89,3.74,3.74L257,180s-13.1,15.78,3.75,32.63l-2.94-7.22,4.54,3.47-4.28-9.08L264,203.5Z"/><path class="cls-2" d="M230.06,192.79l7.64-6.53-2.06,6.67,7.36-7.56-1.82,5.49,7.92-8.55-2.62,4.6,10-6.9s-18.68-8.48-30.48,12.22l6.19-4.74Z"/><path class="cls-2" d="M265.6,167.79,261,170.42l8.55-7.92-5.49,1.82,7.56-7.36L265,159l6.52-7.64-5.3,2.15,4.74-6.19c-20.69,11.81-12.22,30.49-12.22,30.49Z"/><path class="cls-2" d="M232,164.39,241.7,167l-6.65,2.1,10.4,1.74-5.55,1.63,11.53,1.65-5.27.46,11.38,4.32s-3.65-20.18-27.4-18.11l7.43,2.39Z"/><path class="cls-2" d="M270.42,182.38l-3.75-3.75,9.9,6.15L273.36,180l9.09,5.36-3.75-5.89,9.1,4.28-3.48-4.55,7.22,3c-16.84-16.85-32.62-3.75-32.62-3.75Z"/><path class="cls-2" d="M308,221.52c1.44-1.28,2.58-2.5,3.52-3.45-1.68,1.27-4.72.55-5.94.18-13.19-7.67-45.2-38.42-45.2-38.42-2.41-1.07-2.54.14-1.87,1.07,3.91,5.26,32.22,33.6,41.39,42.75.86,1.35,2,3.75.33,5.39C301.65,227.81,305.73,223.78,308,221.52Z"/><path class="cls-2" d="M290.89,369.54l-9.15,4.14,3.83-5.83-9.17,5.23,3.28-4.78-10,6,3.79-3.69-11.56,3.85s15.6,13.32,32.68-3.29L287.35,374Z"/><path class="cls-2" d="M267.14,388.59l5.46,1.9-8.43-8,4.57,2.68L262,375s-8.73,18.56,11.8,30.65l-4.66-6.25,5.27,2.23L268,393.91l6.64,2.15Z"/><path class="cls-2" d="M259.82,372.8l-9.94-7,2.56,4.63-7.8-8.65,1.75,5.52-7.25-7.66,2,6.69-7.55-6.63,2.08,5.33-6.12-4.83C241,381,259.82,372.8,259.82,372.8Z"/><path class="cls-2" d="M242.35,401.11l2.49-7.39,1.17,5.6,2.71-9.68,2,6.68,1.9-10.37,1.54,5.57L256,380l.38,5.28L260.84,374S240.61,377.34,242.35,401.11Z"/><path class="cls-2" d="M260.36,372.58l4.17-11.44-3.79,3.69L267,355l-4.86,3.14,5.48-9-5.94,3.66,4.41-9-4.6,3.41,3.05-7.17C247.47,356.63,260.36,372.58,260.36,372.58Z"/><path class="cls-2" d="M261.85,371.13c-1.11,2.4.1,2.54,1,1.89,5.32-3.84,34.05-31.75,43.32-40.79,1.37-.85,3.78-1.92,5.4-.25-1.21-1.44-5.19-5.58-7.41-7.89-1.26-1.45-2.47-2.61-3.4-3.57,1.24,1.71.48,4.73.09,6C293,339.55,261.85,371.13,261.85,371.13Z"/><path class="cls-2" d="M359.78,239.79,324,261h9v40h19.06V282.1h13.86V301h19.82V261h9.83Zm-14.63,50.4h-7.7v-7.7h7.7Zm0-16.37h-7.7v-7.7h7.7Zm17.91,0h-7.7v-7.7h7.7Zm0-15.59h-7.7v-7.7h7.7Zm17.32,32h-7.7v-7.7h7.7Zm0-16.37h-7.7v-7.7h7.7Z"/></svg>