<svg id="Layer_1" data-name="Layer 1" xmlns="http://www.w3.org/2000/svg" viewBox="0 0 720 720"><defs><style>.cls-1{fill:none;}.cls-2{fill:#fff;}</style></defs><rect class="cls-1" width="720" height="720"/><path class="cls-2" d="M484,226.48l1,1,.13,2.1h-18.8l18.39-18.4-2-2-20.44,20.44H403.45v-58l20.87-20.86-2.05-2-18.82,18.81v-18.3l3.55.23,1,1,1.08-.18V140.5l-41.89-14.09c0-.82.05-1.65.07-2.42.38-15.13-6.88-23.79-7.77-23.86-1.41-.13-7.56,6.56-7.78,23.86,0,.87,0,1.79,0,2.74L310.92,140.5v9.76l1.08.18,1-1,2.1-.14v16.77l-14.72-14.72-2,2,16.76,16.77v59.41H257.73L240,211.79l-2,2.05,15.74,15.74H234.83l.13-2.1,1-1-.18-1.08H226l-14.08,41.88-2.43-.07c-15.13-.37-23.79,6.89-23.86,7.78-.13,1.4,6.56,7.56,23.86,7.78h2.74L226,323.56h9.76l.18-1.09-1-1-.22-3.55H253L236.88,334.1l2,2,18.21-18.21h58v58.82l-17.78,17.78,2,2,15.74-15.74v18.81l-2.1-.13-1-1-1.08.18v9.76l41.88,14.08c0,.83-.05,1.65-.06,2.43-.38,15.12,6.88,23.79,7.77,23.86,1.4.12,7.56-6.57,7.78-23.86,0-.88,0-1.8,0-2.74l40.78-13.77V398.7l-1.09-.18-1,1-3.55.23V379.39l19.84,19.84,2-2-21.88-21.88V317.93h59.42l20.86,20.86,2-2L467,317.93h18.31l-.23,3.55-1,1,.18,1.09H494l14.08-41.89,2.43.07c15.12.38,23.78-6.89,23.86-7.78.13-1.4-6.57-7.55-23.86-7.77l-2.74,0L494,225.4h-9.76Zm1.31,6,2.19,34.24c-13.8.65-28.78,1.85-39.3,3.34-1.58-2.25-6.76-9.4-9.4-10.15a11.09,11.09,0,0,0-2.44-.36l27.07-27.07Zm-48.2,43.15-4.83,7.68-9.84-9.84,9.8-9.81,5.32,8.47c-2,.6-3.1,1.22-3.1,1.84S435.47,275.1,437.15,275.62Zm22.23-43.15-27.17,27.17c-1.33.11-2.29.26-2.29.26l.78,1.24-10.27,10.27-17-17v-22ZM376.8,315.05H343.2L318,289.84V257.07l24.61-24.6h34.8l23.17,23.16v35.65Zm23.77-19.69v19.69H380.89Zm-26.66,22.57L360,331.85l-13.92-13.92Zm-34.8-2.88H318V293.92Zm-24-28.1-13.49-13.49L315.1,260ZM318,253V232.47h20.52Zm27.49-23.41L360,215.06l14.51,14.52Zm36,2.89h19.08v19.08Zm22,26,14.94,14.94-14.94,14.93Zm-2.88-28.94h-22L362,213l9.29-9.29,1.31.82s.16-1,.27-2.4l27.66-27.66Zm-34.21-82.74,34.21,2.2v21.37L373,198a11.38,11.38,0,0,0-.36-2.34c-.68-2.42-6.75-7-9.5-8.95C364.54,176.14,365.63,160.87,366.36,146.84ZM359.49,200c.58,0,1.13-1,1.65-2.64l7.68,4.82L360,211l-9.57-9.57,7.22-4.54C358.24,198.84,358.86,200,359.49,200ZM318,149.13l34.24-2.2c.66,13.81,1.86,28.79,3.35,39.3-2.26,1.58-9.41,6.77-10.16,9.41-.06.19-.1.4-.15.61L318,169Zm0,23.92,27.05,27a40.11,40.11,0,0,0,.38,4.45l2.5-1.57,10,10L341.4,229.58H318Zm-2.89,59.42v23.41l-15.54,15.53L290,261.89l0-.06H290l-29.35-29.35Zm-32.71,44.36c2-.6,3.1-1.21,3.1-1.84s-1-1.13-2.64-1.66l5.61-8.93,9.06,9.06-10.59,10.59Zm-25.86-44.36,29,29a15.71,15.71,0,0,0-4.35.38c-2.42.69-7,6.76-8.94,9.5-10.56-1.39-25.82-2.49-39.86-3.21l2.29-35.65Zm-22,82.58-2.1-32.81c13.81-.65,28.79-1.85,39.3-3.34,1.58,2.25,6.77,9.41,9.41,10.16l.62.14-25.85,25.85Zm25.47,0,25.61-25.61a42.79,42.79,0,0,0,4.44-.38l-1.56-2.5,11.05-11.06L315.1,291v24Zm58,2.88h24l16,16-10.55,10.55-.06,0v.11L318,373.86Zm35.65,84.18L318,399.83V377.94l29-29a15.79,15.79,0,0,0,.38,4.36c.69,2.41,6.76,7,9.5,8.94C355.46,372.81,354.37,388.08,353.64,402.11ZM360.51,349c-.58,0-1.13,1-1.65,2.64L349.92,346,360,335.93l10.82,10.83-8.47,5.32C361.76,350.12,361.14,349,360.51,349Zm40.06,50.94L367.76,402c-.65-13.8-1.85-28.78-3.34-39.3,2.26-1.58,9.41-6.76,10.16-9.4a11.72,11.72,0,0,0,.36-2.45l25.63,25.63Zm0-27.5-25.73-25.73c-.12-1.34-.26-2.29-.26-2.29l-1.25.78L362,333.89l16-16h22.57Zm2.88-57.37V292.48l17-17,10.32,10.31-.83,1.31s1,.16,2.41.27L460,315.05Zm60.61,0-27.57-27.58a10.86,10.86,0,0,0,2.35-.35c2.42-.69,7-6.75,8.94-9.5,10.55,1.4,25.82,2.49,39.86,3.22l-2.2,34.21Z"/><path class="cls-2" d="M360,92.86A181.62,181.62,0,1,0,541.62,274.48,181.62,181.62,0,0,0,360,92.86Zm126.38,308a178.74,178.74,0,1,1,52.35-126.38A178.14,178.14,0,0,1,486.38,400.86Z"/><path class="cls-2" d="M460.77,180l-4,11.51,3.74-3.74-6.15,9.89,4.81-3.21-5.35,9.09,5.88-3.74-4.27,9.08,4.54-3.47L457,212.59C473.87,195.74,460.77,180,460.77,180Z"/><path class="cls-2" d="M461.3,180l10,6.9-2.63-4.6,7.93,8.55-1.83-5.49,7.35,7.56-2.06-6.67,7.65,6.53-2.16-5.3,6.19,4.74C480,171.53,461.3,180,461.3,180Z"/><path class="cls-2" d="M453.76,164.32l-5.49-1.82,8.55,7.92-4.6-2.63,6.9,10s8.47-18.68-12.22-30.49l4.74,6.19-5.3-2.15,6.53,7.64L446.2,157Z"/><path class="cls-2" d="M460.27,178.86l11.38-4.32-5.27-.46,11.53-1.65-5.55-1.63,10.4-1.74-6.65-2.1,9.72-2.57-5.59-1.25,7.43-2.39C463.93,158.68,460.27,178.86,460.27,178.86Z"/><path class="cls-2" d="M430,183.71l9.1-4.28-3.75,5.89,9.09-5.36-3.21,4.82,9.9-6.15-3.74,3.75,11.5-4s-15.79-13.1-32.63,3.75l7.22-3Z"/><path class="cls-2" d="M457.42,179.83s-32,30.75-45.2,38.42c-1.22.37-4.26,1.09-5.94-.18.94,1,2.08,2.17,3.52,3.45,2.27,2.26,6.36,6.29,7.77,7.52-1.64-1.64-.53-4,.33-5.39,9.17-9.15,37.48-37.49,41.39-42.75C460,180,459.83,178.76,457.42,179.83Z"/><path class="cls-2" d="M455.88,374.48l-11.56-3.85,3.79,3.69-10-6,3.28,4.78-9.17-5.23,3.83,5.83-9.15-4.14,3.54,4.49-7.26-2.84C440.28,387.8,455.88,374.48,455.88,374.48Z"/><path class="cls-2" d="M449.07,385.14l4.57-2.68-8.43,8,5.46-1.9-7.46,7.47,6.64-2.15-6.42,7.73,5.27-2.23-4.65,6.25C464.58,393.57,455.84,375,455.84,375Z"/><path class="cls-2" d="M484.26,359.66l-7.55,6.63,2-6.69-7.25,7.66,1.75-5.52-7.8,8.65,2.56-4.63-9.94,7s18.79,8.22,30.31-12.64L482.17,365Z"/><path class="cls-2" d="M457,374l4.48,11.32.38-5.28,1.82,11.51L465.2,386l1.89,10.37,2-6.68,2.71,9.68,1.17-5.6,2.49,7.39C477.2,377.34,457,374,457,374Z"/><path class="cls-2" d="M455.65,358.17,450.79,355l6.28,9.8-3.79-3.69,4.17,11.44s12.89-15.95-4.2-32.56l3.05,7.17-4.6-3.41,4.41,9-5.94-3.66Z"/><path class="cls-2" d="M413.61,324.09c-2.22,2.31-6.2,6.45-7.41,7.89,1.63-1.67,4-.6,5.4.25,9.28,9,38,36.95,43.32,40.79.94.65,2.15.51,1-1.89,0,0-31.19-31.58-39-44.66-.39-1.22-1.15-4.24.09-6C416.08,321.48,414.87,322.64,413.61,324.09Z"/><path class="cls-2" d="M258.65,194.41l4.81,3.21-6.14-9.89,3.74,3.74L257,180s-13.1,15.78,3.75,32.63l-2.94-7.22,4.54,3.47-4.28-9.08L264,203.5Z"/><path class="cls-2" d="M230.06,192.79l7.64-6.53-2.06,6.67,7.36-7.56-1.82,5.49,7.92-8.55-2.62,4.6,10-6.9s-18.68-8.48-30.48,12.22l6.19-4.74Z"/><path class="cls-2" d="M265.6,167.79,261,170.42l8.55-7.92-5.49,1.82,7.56-7.36L265,159l6.52-7.64-5.3,2.15,4.74-6.19c-20.69,11.81-12.22,30.49-12.22,30.49Z"/><path class="cls-2" d="M232,164.39,241.7,167l-6.65,2.1,10.4,1.74-5.55,1.63,11.53,1.65-5.27.46,11.38,4.32s-3.65-20.18-27.4-18.11l7.43,2.39Z"/><path class="cls-2" d="M270.42,182.38l-3.75-3.75,9.9,6.15L273.36,180l9.09,5.36-3.75-5.89,9.1,4.28-3.48-4.55,7.22,3c-16.84-16.85-32.62-3.75-32.62-3.75Z"/><path class="cls-2" d="M308,221.52c1.44-1.28,2.58-2.5,3.52-3.45-1.68,1.27-4.72.55-5.94.18-13.19-7.67-45.2-38.42-45.2-38.42-2.41-1.07-2.54.14-1.87,1.07,3.91,5.26,32.22,33.6,41.39,42.75.86,1.35,2,3.75.33,5.39C301.65,227.81,305.73,223.78,308,221.52Z"/><path class="cls-2" d="M290.89,369.54l-9.15,4.14,3.83-5.83-9.17,5.23,3.28-4.78-10,6,3.79-3.69-11.56,3.85s15.6,13.32,32.68-3.29L287.35,374Z"/><path class="cls-2" d="M267.14,388.59l5.46,1.9-8.43-8,4.57,2.68L262,375s-8.73,18.56,11.8,30.65l-4.66-6.25,5.27,2.23L268,393.91l6.64,2.15Z"/><path class="cls-2" d="M259.82,372.8l-9.94-7,2.56,4.63-7.8-8.65,1.75,5.52-7.25-7.66,2,6.69-7.55-6.63,2.08,5.33-6.12-4.83C241,381,259.82,372.8,259.82,372.8Z"/><path class="cls-2" d="M242.35,401.11l2.49-7.39,1.17,5.6,2.71-9.68,2,6.68,1.9-10.37,1.54,5.57L256,380l.38,5.28L260.84,374S240.61,377.34,242.35,401.11Z"/><path class="cls-2" d="M260.36,372.58l4.17-11.44-3.79,3.69L267,355l-4.86,3.14,5.48-9-5.94,3.66,4.41-9-4.6,3.41,3.05-7.17C247.47,356.63,260.36,372.58,260.36,372.58Z"/><path class="cls-2" d="M261.85,371.13c-1.11,2.4.1,2.54,1,1.89,5.32-3.84,34.05-31.75,43.32-40.79,1.37-.85,3.78-1.92,5.4-.25-1.21-1.44-5.19-5.58-7.41-7.89-1.26-1.45-2.47-2.61-3.4-3.57,1.24,1.71.48,4.73.09,6C293,339.55,261.85,371.13,261.85,371.13Z"/><path class="cls-2" d="M359.78,239.79,324,261h9v40h19.06V282.1h13.86V301h19.82V261h9.83Zm-14.63,50.4h-7.7v-7.7h7.7Zm0-16.37h-7.7v-7.7h7.7Zm17.91,0h-7.7v-7.7h7.7Zm0-15.59h-7.7v-7.7h7.7Zm17.32,32h-7.7v-7.7h7.7Zm0-16.37h-7.7v-7.7h7.7Z"/></svg>